<svg width="238" height="31" viewBox="0 0 238 31" fill="none" xmlns="http://www.w3.org/2000/svg">
<path d="M0.295455 24V0.727272H9.20455C10.8864 0.727272 12.2841 0.992423 13.3977 1.52273C14.5189 2.04545 15.3561 2.76136 15.9091 3.67045C16.4697 4.57954 16.75 5.60985 16.75 6.76136C16.75 7.70833 16.5682 8.51894 16.2045 9.19318C15.8409 9.85985 15.3523 10.4015 14.7386 10.8182C14.125 11.2348 13.4394 11.5341 12.6818 11.7159V11.9432C13.5076 11.9886 14.2992 12.2424 15.0568 12.7045C15.822 13.1591 16.447 13.803 16.9318 14.6364C17.4167 15.4697 17.6591 16.4773 17.6591 17.6591C17.6591 18.8636 17.3674 19.947 16.7841 20.9091C16.2008 21.8636 15.322 22.6174 14.1477 23.1705C12.9735 23.7235 11.4962 24 9.71591 24H0.295455ZM4.51136 20.4773H9.04545C10.5758 20.4773 11.678 20.1856 12.3523 19.6023C13.0341 19.0114 13.375 18.2538 13.375 17.3295C13.375 16.6402 13.2045 16.0189 12.8636 15.4659C12.5227 14.9053 12.0379 14.4659 11.4091 14.1477C10.7803 13.822 10.0303 13.6591 9.15909 13.6591H4.51136V20.4773ZM4.51136 10.625H8.68182C9.40909 10.625 10.0644 10.4924 10.6477 10.2273C11.2311 9.95454 11.6894 9.57197 12.0227 9.07955C12.3636 8.57955 12.5341 7.98864 12.5341 7.30682C12.5341 6.4053 12.2159 5.66288 11.5795 5.07954C10.9508 4.49621 10.0152 4.20454 8.77273 4.20454H4.51136V10.625ZM28.7585 24.3409C27.054 24.3409 25.5767 23.9659 24.3267 23.2159C23.0767 22.4659 22.107 21.4167 21.4176 20.0682C20.7358 18.7197 20.3949 17.1439 20.3949 15.3409C20.3949 13.5379 20.7358 11.9583 21.4176 10.6023C22.107 9.24621 23.0767 8.19318 24.3267 7.44318C25.5767 6.69318 27.054 6.31818 28.7585 6.31818C30.4631 6.31818 31.9403 6.69318 33.1903 7.44318C34.4403 8.19318 35.4063 9.24621 36.0881 10.6023C36.7775 11.9583 37.1222 13.5379 37.1222 15.3409C37.1222 17.1439 36.7775 18.7197 36.0881 20.0682C35.4063 21.4167 34.4403 22.4659 33.1903 23.2159C31.9403 23.9659 30.4631 24.3409 28.7585 24.3409ZM28.7812 21.0455C29.7055 21.0455 30.4782 20.7917 31.0994 20.2841C31.7206 19.7689 32.1828 19.0795 32.4858 18.2159C32.7964 17.3523 32.9517 16.3902 32.9517 15.3295C32.9517 14.2614 32.7964 13.2955 32.4858 12.4318C32.1828 11.5606 31.7206 10.8674 31.0994 10.3523C30.4782 9.83712 29.7055 9.57955 28.7812 9.57955C27.8343 9.57955 27.0464 9.83712 26.4176 10.3523C25.7964 10.8674 25.3305 11.5606 25.0199 12.4318C24.7169 13.2955 24.5653 14.2614 24.5653 15.3295C24.5653 16.3902 24.7169 17.3523 25.0199 18.2159C25.3305 19.0795 25.7964 19.7689 26.4176 20.2841C27.0464 20.7917 27.8343 21.0455 28.7812 21.0455ZM47.0909 24.3068C45.7197 24.3068 44.4924 23.9545 43.4091 23.25C42.3258 22.5455 41.4697 21.5227 40.8409 20.1818C40.2121 18.8409 39.8977 17.2121 39.8977 15.2955C39.8977 13.3561 40.2159 11.7197 40.8523 10.3864C41.4962 9.04545 42.3636 8.03409 43.4545 7.35227C44.5455 6.66288 45.7614 6.31818 47.1023 6.31818C48.125 6.31818 48.9659 6.49242 49.625 6.84091C50.2841 7.18182 50.8068 7.5947 51.1932 8.07955C51.5795 8.55682 51.8788 9.00758 52.0909 9.43182H52.2614V0.727272H56.3864V24H52.3409V21.25H52.0909C51.8788 21.6742 51.572 22.125 51.1705 22.6023C50.7689 23.072 50.2386 23.4735 49.5795 23.8068C48.9205 24.1402 48.0909 24.3068 47.0909 24.3068ZM48.2386 20.9318C49.1098 20.9318 49.8523 20.697 50.4659 20.2273C51.0795 19.75 51.5455 19.0871 51.8636 18.2386C52.1818 17.3902 52.3409 16.4015 52.3409 15.2727C52.3409 14.1439 52.1818 13.1629 51.8636 12.3295C51.553 11.4962 51.0909 10.8485 50.4773 10.3864C49.8712 9.92424 49.125 9.69318 48.2386 9.69318C47.322 9.69318 46.5568 9.93182 45.9432 10.4091C45.3295 10.8864 44.8674 11.5455 44.5568 12.3864C44.2462 13.2273 44.0909 14.1894 44.0909 15.2727C44.0909 16.3636 44.2462 17.3371 44.5568 18.1932C44.875 19.0417 45.3409 19.7121 45.9545 20.2045C46.5758 20.6894 47.3371 20.9318 48.2386 20.9318ZM63.3267 30.5455C62.7661 30.5455 62.2472 30.5 61.7699 30.4091C61.3002 30.3258 60.9252 30.2273 60.6449 30.1136L61.5994 26.9091C62.1979 27.0833 62.732 27.1667 63.2017 27.1591C63.6714 27.1515 64.0843 27.0038 64.4403 26.7159C64.804 26.4356 65.1108 25.9659 65.3608 25.3068L65.7131 24.3636L59.3835 6.54545H63.7472L67.7699 19.7273H67.9517L71.9858 6.54545H76.3608L69.3722 26.1136C69.0464 27.0379 68.6146 27.8295 68.0767 28.4886C67.5388 29.1553 66.8797 29.6629 66.0994 30.0114C65.3267 30.3674 64.4025 30.5455 63.3267 30.5455ZM80.1903 24H75.6903L83.8835 0.727272H89.0881L97.2926 24H92.7926L86.5767 5.5H86.3949L80.1903 24ZM80.3381 14.875H92.6108V18.2614H80.3381V14.875ZM104.29 13.7727V24H100.176V6.54545H104.108V9.51136H104.312C104.714 8.53409 105.354 7.75758 106.233 7.18182C107.119 6.60606 108.214 6.31818 109.517 6.31818C110.722 6.31818 111.771 6.57576 112.665 7.09091C113.566 7.60606 114.263 8.35227 114.756 9.32955C115.256 10.3068 115.502 11.4924 115.494 12.8864V24H111.381V13.5227C111.381 12.3561 111.078 11.4432 110.472 10.7841C109.873 10.125 109.044 9.79545 107.983 9.79545C107.263 9.79545 106.623 9.95455 106.062 10.2727C105.509 10.5833 105.074 11.0341 104.756 11.625C104.445 12.2159 104.29 12.9318 104.29 13.7727ZM126.153 24.3068C124.782 24.3068 123.555 23.9545 122.472 23.25C121.388 22.5455 120.532 21.5227 119.903 20.1818C119.275 18.8409 118.96 17.2121 118.96 15.2955C118.96 13.3561 119.278 11.7197 119.915 10.3864C120.559 9.04545 121.426 8.03409 122.517 7.35227C123.608 6.66288 124.824 6.31818 126.165 6.31818C127.188 6.31818 128.028 6.49242 128.688 6.84091C129.347 7.18182 129.869 7.5947 130.256 8.07955C130.642 8.55682 130.941 9.00758 131.153 9.43182H131.324V0.727272H135.449V24H131.403V21.25H131.153C130.941 21.6742 130.634 22.125 130.233 22.6023C129.831 23.072 129.301 23.4735 128.642 23.8068C127.983 24.1402 127.153 24.3068 126.153 24.3068ZM127.301 20.9318C128.172 20.9318 128.915 20.697 129.528 20.2273C130.142 19.75 130.608 19.0871 130.926 18.2386C131.244 17.3902 131.403 16.4015 131.403 15.2727C131.403 14.1439 131.244 13.1629 130.926 12.3295C130.616 11.4962 130.153 10.8485 129.54 10.3864C128.934 9.92424 128.188 9.69318 127.301 9.69318C126.384 9.69318 125.619 9.93182 125.006 10.4091C124.392 10.8864 123.93 11.5455 123.619 12.3864C123.309 13.2273 123.153 14.1894 123.153 15.2727C123.153 16.3636 123.309 17.3371 123.619 18.1932C123.938 19.0417 124.403 19.7121 125.017 20.2045C125.638 20.6894 126.4 20.9318 127.301 20.9318ZM140.014 24V0.727272H144.23V10.5795H155.014V0.727272H159.241V24H155.014V14.1136H144.23V24H140.014ZM171.372 24.3409C169.622 24.3409 168.111 23.9773 166.838 23.25C165.573 22.5152 164.599 21.4773 163.918 20.1364C163.236 18.7879 162.895 17.2008 162.895 15.375C162.895 13.5795 163.236 12.0038 163.918 10.6477C164.607 9.28409 165.569 8.22348 166.804 7.46591C168.039 6.70076 169.49 6.31818 171.156 6.31818C172.232 6.31818 173.247 6.49242 174.202 6.84091C175.164 7.18182 176.012 7.71212 176.747 8.43182C177.49 9.15151 178.073 10.0682 178.497 11.1818C178.921 12.2879 179.134 13.6061 179.134 15.1364V16.3977H164.827V13.625H175.19C175.183 12.8371 175.012 12.1364 174.679 11.5227C174.346 10.9015 173.88 10.4129 173.281 10.0568C172.69 9.70076 172.001 9.52273 171.213 9.52273C170.372 9.52273 169.634 9.72727 168.997 10.1364C168.361 10.5379 167.865 11.0682 167.509 11.7273C167.16 12.3788 166.982 13.0947 166.974 13.875V16.2955C166.974 17.3106 167.16 18.1818 167.531 18.9091C167.902 19.6288 168.421 20.1818 169.088 20.5682C169.755 20.947 170.535 21.1364 171.429 21.1364C172.027 21.1364 172.569 21.053 173.054 20.8864C173.539 20.7121 173.959 20.4583 174.315 20.125C174.671 19.7917 174.94 19.3788 175.122 18.8864L178.963 19.3182C178.721 20.3333 178.259 21.2197 177.577 21.9773C176.902 22.7273 176.039 23.3106 174.986 23.7273C173.933 24.1364 172.728 24.3409 171.372 24.3409ZM187.636 24.3523C186.53 24.3523 185.534 24.1553 184.648 23.7614C183.769 23.3598 183.072 22.7689 182.557 21.9886C182.049 21.2083 181.795 20.2462 181.795 19.1023C181.795 18.1174 181.977 17.303 182.341 16.6591C182.705 16.0152 183.201 15.5 183.83 15.1136C184.458 14.7273 185.167 14.4356 185.955 14.2386C186.75 14.0341 187.572 13.8864 188.42 13.7955C189.443 13.6894 190.273 13.5947 190.909 13.5114C191.545 13.4205 192.008 13.2841 192.295 13.1023C192.591 12.9129 192.739 12.6212 192.739 12.2273V12.1591C192.739 11.303 192.485 10.6402 191.977 10.1705C191.47 9.70076 190.739 9.46591 189.784 9.46591C188.777 9.46591 187.977 9.68561 187.386 10.125C186.803 10.5644 186.409 11.0833 186.205 11.6818L182.364 11.1364C182.667 10.0758 183.167 9.18939 183.864 8.47727C184.561 7.75757 185.413 7.2197 186.42 6.86364C187.428 6.5 188.542 6.31818 189.761 6.31818C190.602 6.31818 191.439 6.41667 192.273 6.61364C193.106 6.81061 193.867 7.13636 194.557 7.59091C195.246 8.03788 195.799 8.64773 196.216 9.42045C196.64 10.1932 196.852 11.1591 196.852 12.3182V24H192.898V21.6023H192.761C192.511 22.0871 192.159 22.5417 191.705 22.9659C191.258 23.3826 190.693 23.7197 190.011 23.9773C189.337 24.2273 188.545 24.3523 187.636 24.3523ZM188.705 21.3295C189.53 21.3295 190.246 21.1667 190.852 20.8409C191.458 20.5076 191.924 20.0682 192.25 19.5227C192.583 18.9773 192.75 18.3826 192.75 17.7386V15.6818C192.621 15.7879 192.402 15.8864 192.091 15.9773C191.788 16.0682 191.447 16.1477 191.068 16.2159C190.689 16.2841 190.314 16.3447 189.943 16.3977C189.572 16.4508 189.25 16.4962 188.977 16.5341C188.364 16.6174 187.814 16.7538 187.33 16.9432C186.845 17.1326 186.462 17.3977 186.182 17.7386C185.902 18.072 185.761 18.5038 185.761 19.0341C185.761 19.7917 186.038 20.3636 186.591 20.75C187.144 21.1364 187.848 21.3295 188.705 21.3295ZM205.102 0.727272V24H200.989V0.727272H205.102ZM218.048 6.54545V9.72727H208.014V6.54545H218.048ZM210.491 2.36364H214.605V18.75C214.605 19.303 214.688 19.7273 214.855 20.0227C215.029 20.3106 215.257 20.5076 215.537 20.6136C215.817 20.7197 216.128 20.7727 216.469 20.7727C216.726 20.7727 216.961 20.7538 217.173 20.7159C217.393 20.678 217.56 20.6439 217.673 20.6136L218.366 23.8295C218.147 23.9053 217.832 23.9886 217.423 24.0795C217.022 24.1705 216.529 24.2235 215.946 24.2386C214.916 24.2689 213.988 24.1136 213.162 23.7727C212.336 23.4242 211.681 22.8864 211.196 22.1591C210.719 21.4318 210.484 20.5227 210.491 19.4318V2.36364ZM225.977 13.7727V24H221.864V0.727272H225.886V9.51136H226.091C226.5 8.52651 227.133 7.75 227.989 7.18182C228.852 6.60606 229.951 6.31818 231.284 6.31818C232.496 6.31818 233.553 6.57197 234.455 7.07954C235.356 7.58712 236.053 8.32954 236.545 9.30682C237.045 10.2841 237.295 11.4773 237.295 12.8864V24H233.182V13.5227C233.182 12.3485 232.879 11.4356 232.273 10.7841C231.674 10.125 230.833 9.79545 229.75 9.79545C229.023 9.79545 228.371 9.95455 227.795 10.2727C227.227 10.5833 226.78 11.0341 226.455 11.625C226.136 12.2159 225.977 12.9318 225.977 13.7727Z" fill="#047977"/>
</svg>

